<svg id="Camada_1" data-name="Camada 1" xmlns="http://www.w3.org/2000/svg" viewBox="0 0 1012.74 680.11"><defs><style>.cls-1{fill:#3a506b;}.cls-2{fill:#5bc0be;}</style></defs><path class="cls-1" d="M821.4,163.32h0a76.54,76.54,0,0,0-104.54,28L589.32,412.25a76.52,76.52,0,0,0,28,104.54h0a76.54,76.54,0,0,0,104.54-28L849.41,267.86A76.52,76.52,0,0,0,821.4,163.32Z"/><path class="cls-2" d="M721.87,412.25,594.32,191.33a76.53,76.53,0,0,0-104.54-28h0a76.53,76.53,0,0,0-28,104.54L589.32,488.78a76.53,76.53,0,0,0,104.54,28h0A76.53,76.53,0,0,0,721.87,412.25Z"/><circle class="cls-2" cx="229.58" cy="450.53" r="76.53"/><path class="cls-2" d="M404.35,233.45,380,191.33a76.54,76.54,0,0,0-133.66,2c-5.06,9.28-34.65,86.83-34.65,86.83,5.78-9.47,35.71-14.29,51.36,14.75l69.77,120.85,42.18,73a76.53,76.53,0,0,0,132.55-76.53Z"/></svg>