<svg width="707" height="374" viewBox="0 0 707 374" fill="none" xmlns="http://www.w3.org/2000/svg">
<g clip-path="url(#clip0_2_2)">
<path d="M668.4 10.32C650.823 0.173816 629.936 -2.57629 610.332 2.67445C590.728 7.92518 574.012 20.7468 563.86 38.32L436.32 259.25C431.293 267.952 428.03 277.56 426.717 287.524C425.404 297.487 426.066 307.612 428.666 317.32C431.267 327.027 435.754 336.128 441.871 344.101C447.988 352.075 455.617 358.765 464.32 363.79C481.897 373.936 502.784 376.686 522.388 371.436C541.992 366.185 558.708 353.363 568.86 335.79L696.41 114.86C701.436 106.157 704.699 96.549 706.011 86.5849C707.324 76.6208 706.66 66.4958 704.059 56.788C701.458 47.0803 696.97 37.9801 690.852 30.007C684.733 22.0339 677.104 15.3442 668.4 10.32Z" fill="#3A506B"/>
<path d="M568.87 259.25L441.32 38.33C431.17 20.7548 414.453 7.9314 394.849 2.68046C375.244 -2.57049 354.356 0.181118 336.78 10.33C319.205 20.4805 306.381 37.1966 301.13 56.8014C295.88 76.4062 298.631 97.2939 308.78 114.87L436.32 335.78C446.471 353.355 463.187 366.179 482.791 371.43C502.396 376.681 523.284 373.929 540.86 363.78C558.434 353.631 571.258 336.918 576.51 317.315C581.763 297.713 579.015 276.826 568.87 259.25Z" fill="#5BC0BE"/>
<path d="M76.58 374.06C118.846 374.06 153.11 339.796 153.11 297.53C153.11 255.264 118.846 221 76.58 221C34.3136 221 0.0500031 255.264 0.0500031 297.53C0.0500031 339.796 34.3136 374.06 76.58 374.06Z" fill="#5BC0BE"/>
<path d="M251.35 80.45L227 38.33C220.183 26.5327 210.341 16.7688 198.489 10.0468C186.638 3.32481 173.207 -0.111714 159.583 0.0921419C145.959 0.295997 132.637 4.13284 120.992 11.2064C109.347 18.2801 99.8008 28.334 93.34 40.33C88.28 49.61 58.69 127.16 58.69 127.16C64.47 117.69 94.4 112.87 110.05 141.91L179.82 262.76L222 335.76C232.22 353.195 248.922 365.879 268.46 371.045C287.998 376.211 308.786 373.439 326.288 363.334C343.79 353.229 356.585 336.612 361.879 317.108C367.174 297.604 364.539 276.798 354.55 259.23L251.35 80.45Z" fill="#5BC0BE"/>
</g>
<defs>
<clipPath id="clip0_2_2">
<rect width="707" height="374" fill="white"/>
</clipPath>
</defs>
</svg>
